Coordinates
version=1
nRows=19
nColumns=24
inDegrees=yes

Units are S.I. units (second, meters, Newtons, ...)
Angles are in degrees.

endheader
time	pelvis_tilt	pelvis_list	pelvis_rotation	pelvis_tx	pelvis_ty	pelvis_tz	hip_flexion_r	hip_adduction_r	hip_rotation_r	knee_angle_r	ankle_angle_r	subtalar_angle_r	mtp_angle_r	hip_flexion_l	hip_adduction_l	hip_rotation_l	knee_angle_l	ankle_angle_l	subtalar_angle_l	mtp_angle_l	lumbar_extension	lumbar_bending	lumbar_rotation
      4.05500000	     -9.12828802	     -2.42053323	     -2.60892171	     -1.19904216	     -0.00295985	     -0.60367790	      5.30925632	      5.39047833	     -6.75949437	     -8.01709166	      4.92875786	     -7.18453583	      4.94627430	     33.01108673	     -7.93580739	    -17.75205694	    -54.36043188	     -1.92376962	    -13.82948358	      5.22422168	      5.67246657	      5.35874705	     -0.16609884
      4.06000000	     -9.28639147	     -2.34844895	     -2.69000837	     -1.19385071	     -0.00342379	     -0.60341364	      5.05266026	      5.33543487	     -6.70818369	     -7.86211188	      5.11267840	     -7.12502422	      5.00807756	     33.47018970	     -7.88948807	    -18.04228953	    -53.00345357	     -1.62997984	    -13.84974662	      5.07928881	      5.75612337	      5.24803185	      0.00321770
      4.06500000	     -9.26860269	     -2.25244830	     -2.75301531	     -1.18859142	     -0.00371143	     -0.60329096	      4.59752347	      5.21943822	     -6.83951706	     -7.68896609	      5.33876312	     -6.79192221	      5.38968897	     33.69560953	     -7.79112980	    -18.39853101	    -51.59635479	     -1.09488740	    -13.75103944	      3.76822823	      5.65419304	      5.11705404	      0.19627078
      4.07000000	     -9.43643252	     -2.19890929	     -2.87454502	     -1.18340007	     -0.00425702	     -0.60305411	      4.37016858	      5.17946038	     -6.79166366	     -7.56604799	      5.52432444	     -6.67716657	      5.50557366	     34.10283807	     -7.79039412	    -18.76943572	    -50.11553324	     -0.79074262	    -13.71322842	      3.45073861	      5.73710008	      5.04122965	      0.41834976
      4.07500000	     -9.46408070	     -2.12723814	     -2.87741979	     -1.17811357	     -0.00470797	     -0.60302249	      3.96469370	      5.08789399	     -6.95488348	     -7.40191542	      5.76518191	     -6.41268135	      5.80649184	     34.33750922	     -7.67196364	    -19.05220597	    -48.57990577	     -0.28422618	    -13.51679693	      2.37462739	      5.68954316	      4.91996734	      0.52652577
      4.08000000	     -9.64356729	     -2.08958356	     -2.97677918	     -1.17289341	     -0.00535688	     -0.60284620	      3.74976736	      5.06137550	     -6.91711835	     -7.28549784	      5.96811271	     -6.30771342	      5.88676038	     34.70238290	     -7.66302074	    -19.40238849	    -46.96710482	     -0.01902294	    -13.39154071	      2.15376586	      5.78929758	      4.85079417	      0.73057321
      4.08500000	     -9.73867846	     -2.03337558	     -3.04230471	     -1.16763488	     -0.00592850	     -0.60276731	      3.44062660	      4.99734153	     -6.97318406	     -7.16768312	      6.19142770	     -6.09761642	      5.98880953	     34.93317454	     -7.60237512	    -19.76084024	    -45.27166841	      0.27618073	    -13.16331025	      1.77688480	      5.79911185	      4.76038126	      0.89359130
      4.09000000	     -9.84320203	     -1.99753880	     -3.07276837	     -1.16235467	     -0.00656804	     -0.60274970	      3.14001959	      4.95184232	     -7.08143764	     -7.05156352	      6.41879972	     -5.88727884	      6.10752476	     35.15489325	     -7.53433118	    -20.09144224	    -43.52705559	      0.57369327	    -12.85623497	      1.35074733	      5.82324670	      4.68388283	      1.01973783
      4.09500000	    -10.03021308	     -2.00916394	     -3.03283152	     -1.15707410	     -0.00736638	     -0.60280778	      2.91440712	      4.96791846	     -7.16770349	     -6.91527086	      6.59574188	     -5.87189593	      6.13884941	     35.46605910	     -7.45685069	    -20.29695534	    -41.73253456	      0.75061335	    -12.54381197	      1.23336873	      5.94077420	      4.64142215	      1.03137726
      4.10000000	    -10.10747293	     -1.97329828	     -3.10893433	     -1.15174423	     -0.00802799	     -0.60278807	      2.58945093	      4.91568393	     -7.26876685	     -6.81758980	      6.85612807	     -5.54773452	      6.24999884	     35.56576741	     -7.40479043	    -20.72004419	    -39.85304252	      1.00717868	    -12.04876915	      0.97664719	      5.93429446	      4.57107533	      1.23559071
      4.10500000	    -10.22983019	     -1.96837874	     -3.09560993	     -1.14638543	     -0.00878813	     -0.60289053	      2.29948885	      4.89720134	     -7.41406076	     -6.70200927	      7.07168201	     -5.33861082	      6.34702241	     35.70845212	     -7.30757464	    -21.02111289	    -37.92733024	      1.18811345	    -11.49595035	      0.82442132	      5.98569305	      4.51802383	      1.29586824
      4.11000000	    -10.42308395	     -1.98846993	     -3.04007633	     -1.14106651	     -0.00965308	     -0.60305809	      2.09249934	      4.91276094	     -7.55165961	     -6.59508467	      7.23289582	     -5.28814126	      6.38289003	     35.92091823	     -7.19239821	    -21.24234196	    -35.96323604	      1.24634492	    -10.91482995	      0.78967547	      6.10459815	      4.48539416	      1.29297777
      4.11500000	    -10.48078943	     -1.98849453	     -3.08471566	     -1.13562776	     -0.01036772	     -0.60312889	      1.73726714	      4.88832655	     -7.71756729	     -6.50061121	      7.46297380	     -4.89437171	      6.49941738	     35.90397155	     -7.13501409	    -21.69545360	    -33.95215857	      1.40777040	    -10.06270108	      0.91260691	      6.08917268	      4.44156679	      1.43856468
      4.12000000	    -10.55111285	     -1.99270440	     -3.06602644	     -1.13019767	     -0.01112927	     -0.60331004	      1.40521502	      4.86488409	     -7.95999509	     -6.42206290	      7.67233064	     -4.58354509	      6.64131882	     35.89265226	     -7.01355798	    -22.03408982	    -31.90637100	      1.45258099	     -9.19695595	      1.21107472	      6.08304147	      4.39284845	      1.52822161
      4.12500000	    -10.63564135	     -2.01053512	     -3.05338340	     -1.12471410	     -0.01192963	     -0.60351246	      1.08332816	      4.85268421	     -8.17046650	     -6.34376276	      7.86676534	     -4.26132773	      6.79670944	     35.87886057	     -6.90566625	    -22.39238459	    -29.86193732	      1.44868691	     -8.23896954	      1.71936304	      6.10089067	      4.35775313	      1.59964044
      4.13000000	    -10.65059857	     -1.98425307	     -3.00130348	     -1.11913721	     -0.01263491	     -0.60380166	      0.67491207	      4.77541146	     -8.45788269	     -6.24509112	      8.04060157	     -3.86212193	      7.17737376	     35.73917989	     -6.70530537	    -22.74219617	    -27.70038065	      0.99866188	     -7.51004726	      3.35373236	      6.05768402	      4.27015668	      1.61796006
      4.13500000	    -10.77249871	     -2.01573564	     -3.01370924	     -1.11358382	     -0.01349018	     -0.60402962	      0.39875043	      4.77523444	     -8.57406109	     -6.19170556	      8.19916887	     -3.59022179	      7.22821187	     35.74939594	     -6.61944857	    -23.13087914	    -25.73231588	      1.06606771	     -6.31206761	      3.85584546	      6.12142693	      4.25690940	      1.70930849
      4.14000000	    -10.74213107	     -1.94595231	     -3.01550018	     -1.10795242	     -0.01410854	     -0.60431480	     -0.03647474	      4.63988270	     -8.76990966	     -6.15211273	      8.40863857	     -3.14148485	      7.30701228	     35.53897758	     -6.39741040	    -23.54305568	    -23.70497596	      0.93660440	     -5.23098255	      4.75107445	      6.02844758	      4.13039664	      1.80604051
      4.14500000	    -10.74029532	     -1.85076688	     -2.93881770	     -1.10226641	     -0.01471569	     -0.60472927	     -0.44550928	      4.46812196	     -9.03752427	     -6.10021116	      8.56240321	     -2.71108507	      7.57261042	     35.34939758	     -6.07763441	    -23.81495810	    -21.60981604	      0.22906521	     -4.60386314	      7.16906289	      5.98258134	      3.96943853	      1.79009107
